<svg width="48" height="48" viewBox="0 0 48 48" fill="none" xmlns="http://www.w3.org/2000/svg">
<path d="M42.0185 15.0617C40.5665 6.70231 33.4997 0.315517 25.0132 0.0148298C17.9164 -0.237198 12.3515 2.72476 8.63662 8.77593C5.6577 13.6256 5.10508 18.7834 7.48148 24.1222C8.8941 27.2535 10.5709 30.2588 12.4938 33.1054C15.4552 37.5483 18.7373 41.7467 22.2089 45.7991C22.8327 46.534 23.4801 47.2564 24.1288 48C24.2435 47.8752 24.3309 47.7879 24.4132 47.6956C28.1319 43.4897 31.641 39.1179 34.8344 34.499C37.0599 31.2788 39.1132 27.9575 40.69 24.3593C41.9948 21.3773 42.5861 18.328 42.0185 15.0617ZM34.9442 10.872C34.8993 11.762 34.8685 12.4981 34.8519 13.0804C34.8353 13.6626 34.8265 14.1018 34.8257 14.3979C32.414 14.274 30.4214 14.212 28.8479 14.212H27.6628C27.4915 16.2083 27.3609 18.0527 27.2711 19.7454C27.1455 22.1709 27.0487 24.5256 26.9805 26.8097C26.9123 29.0937 26.8782 30.9428 26.8782 32.3568C25.0253 32.3343 23.8281 32.3231 23.2867 32.3231C22.8019 32.3231 21.5033 32.3343 19.3909 32.3568C19.9523 26.8671 20.2891 20.8205 20.4014 14.217L13.1873 14.4029L13.2722 12.5189C13.3171 11.5133 13.3512 10.4116 13.3745 9.21386C16.5813 9.23632 20.3203 9.24755 24.5916 9.24755L28.7768 9.23133H32.8447L35.0478 9.21386L34.9442 10.872Z" fill="#1C2572"/>
</svg>
