<svg width="176" height="45" viewBox="0 0 176 45" fill="none" xmlns="http://www.w3.org/2000/svg">
<path d="M34.7788 32.9646H39.6684V33.8282H35.7294V35.969H39.1887V36.8084H35.7294V40.0146H34.7744L34.7788 32.9646Z" fill="#9E9C9B"/>
<path d="M40.5986 32.9646H41.4632V40.0146H40.5997L40.5986 32.9646Z" fill="#9E9C9B"/>
<path d="M45.9315 35.0162C46.2448 35.1639 46.5132 35.3923 46.709 35.678C46.886 35.9526 47.0028 36.2616 47.052 36.5846C47.1131 36.9589 47.1386 37.3382 47.128 37.7173H43.3908C43.4062 38.2401 43.5283 38.6596 43.7569 38.9758C43.9855 39.292 44.3395 39.4501 44.8189 39.4501C45.0194 39.4588 45.2194 39.4231 45.4045 39.3454C45.5896 39.2678 45.7553 39.1503 45.8896 39.0012C46.04 38.8272 46.1486 38.6213 46.2072 38.399H47.0564C47.0231 38.6212 46.9483 38.8352 46.8358 39.0298C46.7252 39.2401 46.5823 39.4318 46.4124 39.5978C46.1454 39.8579 45.8106 40.0376 45.4463 40.1162C45.2169 40.1705 44.9818 40.1964 44.7461 40.1934C44.4426 40.198 44.1415 40.1382 43.8629 40.0178C43.5842 39.8975 43.3342 39.7194 43.1294 39.4953C42.6883 39.0298 42.4678 38.378 42.4678 37.5398C42.4678 36.7148 42.6905 36.0445 43.136 35.5291C43.35 35.2775 43.6181 35.0773 43.9201 34.9437C44.2222 34.81 44.5505 34.7462 44.8806 34.757C45.2464 34.7595 45.6065 34.8483 45.9315 35.0162ZM46.2403 37.0346C46.2231 36.7217 46.1405 36.4158 45.9977 36.1368C45.7639 35.721 45.3713 35.5126 44.8233 35.5126C44.6366 35.5087 44.4514 35.5451 44.2801 35.6193C44.1088 35.6935 43.9556 35.8038 43.8308 35.9427C43.5598 36.242 43.409 36.6309 43.4073 37.0346H46.2403Z" fill="#9E9C9B"/>
<path d="M51.3969 35.0162C51.7102 35.1639 51.9785 35.3923 52.1743 35.678C52.3513 35.9526 52.4682 36.2616 52.5173 36.5846C52.5785 36.9589 52.6039 37.3382 52.5934 37.7173H48.8517C48.8672 38.2401 48.9892 38.6596 49.2178 38.9758C49.4465 39.292 49.8005 39.45 50.2798 39.45C50.4803 39.4586 50.6802 39.4228 50.8653 39.3452C51.0504 39.2676 51.2161 39.1501 51.3506 39.0011C51.5001 38.8267 51.6087 38.6209 51.6682 38.3989H52.5173C52.484 38.6212 52.4092 38.8352 52.2967 39.0298C52.1861 39.2401 52.0432 39.4318 51.8733 39.5978C51.6063 39.8579 51.2715 40.0376 50.9073 40.1162C50.6779 40.1704 50.4427 40.1963 50.207 40.1934C49.9035 40.1981 49.6024 40.1383 49.3238 40.0179C49.0451 39.8976 48.7951 39.7194 48.5904 39.4953C48.1493 39.0298 47.9287 38.378 47.9287 37.5397C47.9287 36.7147 48.1511 36.0445 48.5959 35.5291C48.8101 35.2775 49.0784 35.0774 49.3806 34.9437C49.6828 34.8101 50.0113 34.7463 50.3415 34.757C50.7089 34.7588 51.0705 34.8476 51.3969 35.0162ZM51.7057 37.0346C51.6885 36.7217 51.6058 36.4158 51.4631 36.1368C51.2285 35.7221 50.836 35.5147 50.2853 35.5147C50.0987 35.5109 49.9134 35.5473 49.7421 35.6215C49.5709 35.6957 49.4176 35.806 49.2928 35.9449C49.0218 36.2442 48.871 36.6331 48.8694 37.0368L51.7057 37.0346Z" fill="#9E9C9B"/>
<path d="M53.8614 33.4399H54.7348V34.8738H55.5552V35.5785H54.7348V38.9337C54.7262 39.0049 54.7389 39.0771 54.7712 39.1411C54.8036 39.2051 54.8543 39.258 54.9167 39.2933C55.0235 39.3357 55.1384 39.3538 55.2531 39.3462H55.3865C55.435 39.3462 55.4913 39.3407 55.5552 39.3297V40.0168C55.4538 40.0461 55.3502 40.0667 55.2453 40.0786C55.1301 40.0923 55.0141 40.0989 54.898 40.0984C54.4944 40.0984 54.2209 39.9951 54.0775 39.7885C53.9224 39.5498 53.8453 39.2688 53.857 38.9844V35.5797H53.1611V34.8749H53.857L53.8614 33.4399Z" fill="#9E9C9B"/>
<path d="M59.2393 32.9646H60.6078L62.6335 38.9205L64.6461 32.9646H66.0047V40.0146H65.0927V35.8532C65.0927 35.7098 65.096 35.4716 65.1026 35.1385C65.1092 34.8054 65.1125 34.4488 65.1125 34.0686L63.1 40.0146H62.1538L60.1226 34.0686V34.2892C60.1226 34.4613 60.1226 34.7249 60.1369 35.0778C60.1512 35.4308 60.1512 35.6922 60.1512 35.8576V40.0146H59.2393V32.9646Z" fill="#9E9C9B"/>
<path d="M70.0883 36.9044C70.1706 36.9012 70.2507 36.8765 70.3205 36.8328C70.3903 36.7891 70.4475 36.7278 70.4863 36.6551C70.5297 36.5504 70.5493 36.4374 70.5437 36.3242C70.5437 36.0301 70.4393 35.8158 70.2305 35.6812C70.021 35.5489 69.7221 35.4816 69.3318 35.4816C68.8818 35.4816 68.5628 35.6036 68.3746 35.8478C68.2533 36.0269 68.1821 36.2352 68.1684 36.4511H67.3622C67.3791 35.8158 67.5846 35.3746 67.9787 35.1275C68.3909 34.8736 68.8676 34.7442 69.3516 34.7548C69.9552 34.7548 70.4455 34.8698 70.8227 35.1C71.1998 35.3301 71.3866 35.6886 71.3829 36.1753V39.1356C71.3784 39.2131 71.3976 39.29 71.438 39.3562C71.4674 39.3875 71.5039 39.4112 71.5444 39.4254C71.5849 39.4396 71.6282 39.4439 71.6707 39.4378C71.7142 39.4377 71.7576 39.4352 71.8008 39.4301C71.8483 39.4301 71.9001 39.4191 71.9541 39.4092V40.0367C71.8536 40.0674 71.7512 40.0917 71.6476 40.1095C71.552 40.1201 71.4559 40.1249 71.3597 40.1239C71.062 40.1239 70.8458 40.0184 70.7113 39.8073C70.6295 39.6608 70.5788 39.499 70.5624 39.332C70.3578 39.5859 70.0989 39.7909 69.8048 39.932C69.4673 40.1028 69.0936 40.1898 68.7153 40.1856C68.5017 40.194 68.2885 40.1601 68.0881 40.0857C67.8877 40.0113 67.7039 39.8979 67.5475 39.7522C67.3995 39.6136 67.2826 39.4452 67.2045 39.2582C67.1264 39.0711 67.0888 38.8696 67.0943 38.6669C67.0943 38.1904 67.2413 37.8228 67.5354 37.5639C67.8674 37.2871 68.2759 37.1181 68.7065 37.0798L70.0883 36.9044ZM68.2698 39.2371C68.4534 39.3837 68.6823 39.4617 68.9171 39.4577C69.2237 39.4568 69.5258 39.3843 69.7993 39.2459C70.0216 39.1512 70.2096 38.9908 70.3382 38.7862C70.4667 38.5815 70.5295 38.3425 70.5183 38.1011V37.4062C70.3919 37.4826 70.2548 37.5395 70.1114 37.575C69.9512 37.6191 69.7879 37.6512 69.6229 37.6709L69.1013 37.7382C68.8561 37.7602 68.6169 37.8267 68.3955 37.9345C68.2672 38.0035 68.1614 38.1078 68.0905 38.235C68.0195 38.3623 67.9865 38.5071 67.9952 38.6526C67.9913 38.7648 68.0141 38.8764 68.0619 38.978C68.1096 39.0797 68.1809 39.1685 68.2698 39.2371Z" fill="#9E9C9B"/>
<path d="M72.7984 34.875H73.6188V35.6041C73.8253 35.3341 74.0889 35.113 74.3907 34.9566C74.6743 34.8227 74.9847 34.7552 75.2983 34.7592C76.0269 34.7592 76.5194 35.0136 76.776 35.5224C76.9157 35.8019 76.9859 36.2004 76.9866 36.718V40.0147H76.1044V36.7754C76.1146 36.5153 76.0672 36.2562 75.9655 36.0166C75.8122 35.6967 75.5332 35.5368 75.1307 35.5368C74.9605 35.5322 74.7906 35.5534 74.6267 35.5996C74.3815 35.6756 74.1642 35.8226 74.0026 36.0221C73.8689 36.1724 73.7729 36.3523 73.7225 36.5471C73.6727 36.8013 73.6508 37.0602 73.6574 37.3191V40.0147H72.7939L72.7984 34.875Z" fill="#9E9C9B"/>
<path d="M81.017 36.9044C81.0993 36.9012 81.1794 36.8766 81.2492 36.8328C81.3191 36.7891 81.3762 36.7278 81.4151 36.6552C81.4584 36.5505 81.478 36.4375 81.4724 36.3243C81.4724 36.0287 81.3687 35.8147 81.1592 35.6813C80.9497 35.5478 80.6509 35.4816 80.2616 35.4816C79.8117 35.4816 79.4922 35.6037 79.3033 35.8478C79.1828 36.0272 79.112 36.2354 79.0982 36.4511H78.2954C78.3108 35.8158 78.5159 35.3746 78.9107 35.1276C79.3215 34.8729 79.797 34.742 80.2803 34.7504C80.8846 34.7504 81.375 34.8655 81.7514 35.0956C82.1278 35.3258 82.3149 35.6842 82.3127 36.171V39.1313C82.3076 39.2087 82.3269 39.2859 82.3679 39.3519C82.3972 39.3832 82.4337 39.4069 82.4742 39.4211C82.5147 39.4354 82.558 39.4396 82.6005 39.4335C82.6437 39.4334 82.6867 39.4308 82.7296 39.4257C82.7781 39.4257 82.8288 39.4147 82.8839 39.4048V40.0368C82.783 40.0676 82.6803 40.0919 82.5763 40.1096C82.4807 40.1201 82.3846 40.1249 82.2885 40.1239C81.9907 40.1239 81.7757 40.0136 81.6411 39.8074C81.5593 39.6609 81.5086 39.499 81.4923 39.332C81.2869 39.5857 81.0277 39.7906 80.7336 39.932C80.3964 40.1028 80.0231 40.1898 79.6451 40.1857C79.4313 40.1942 79.218 40.1602 79.0174 40.0858C78.8167 40.0114 78.6328 39.8981 78.4762 39.7522C78.3282 39.6136 78.2113 39.4453 78.1332 39.2582C78.0551 39.0711 78.0175 38.8696 78.023 38.6669C78.023 38.1905 78.1719 37.8228 78.4696 37.564C78.8011 37.2869 79.2093 37.118 79.6396 37.0798L81.017 36.9044ZM79.1985 39.2371C79.3821 39.3837 79.611 39.4617 79.8458 39.4577C80.1524 39.4569 80.4545 39.3844 80.728 39.246C80.9505 39.1513 81.1386 38.9909 81.2673 38.7863C81.396 38.5817 81.4591 38.3426 81.4482 38.1011V37.4063C81.3216 37.4823 81.1845 37.5391 81.0412 37.575C80.881 37.619 80.7177 37.651 80.5527 37.671L80.03 37.7382C79.7848 37.7604 79.5457 37.8269 79.3242 37.9346C79.196 38.0036 79.0901 38.1078 79.0192 38.2351C78.9482 38.3623 78.9152 38.5072 78.9239 38.6526C78.9202 38.7648 78.9431 38.8763 78.9908 38.9779C79.0386 39.0796 79.1098 39.1684 79.1985 39.2371Z" fill="#9E9C9B"/>
<path d="M86.5857 35.0811C86.7747 35.2189 86.9423 35.3839 87.083 35.5708V34.9223H87.8792V39.5955C87.8792 40.2484 87.7837 40.7631 87.5925 41.1396C87.2352 41.8366 86.5607 42.1855 85.569 42.1863C85.0787 42.2029 84.5946 42.0731 84.1784 41.8135C83.8012 41.5664 83.5917 41.1782 83.5465 40.6499H84.4287C84.4553 40.8485 84.5419 41.0344 84.6768 41.1826C84.8709 41.3745 85.1764 41.4705 85.5932 41.4705C86.2549 41.4705 86.686 41.237 86.8867 40.7701C87.0073 40.4951 87.0628 40.0039 87.0533 39.2966C86.8997 39.5416 86.686 39.7432 86.4324 39.8822C86.0345 40.061 85.5928 40.1186 85.1624 40.048C84.732 39.9774 84.3318 39.7817 84.0119 39.4852C83.5958 39.0903 83.3877 38.437 83.3877 37.5252C83.3877 36.6635 83.5972 35.9914 84.0163 35.5091C84.1987 35.2822 84.4298 35.0993 84.6924 34.9739C84.9551 34.8484 85.2426 34.7837 85.5337 34.7844C85.9061 34.7759 86.2726 34.8792 86.5857 35.0811ZM86.696 36.0076C86.5762 35.8606 86.4247 35.7427 86.2528 35.6628C86.0808 35.583 85.893 35.5432 85.7035 35.5466C85.0992 35.5466 84.6853 35.8311 84.4618 36.4002C84.3318 36.785 84.2721 37.1899 84.2853 37.5958C84.2853 38.1752 84.4022 38.6164 84.636 38.9194C84.7444 39.065 84.8863 39.1824 85.0496 39.2617C85.213 39.341 85.393 39.3798 85.5745 39.3749C86.192 39.3749 86.6265 39.0947 86.8779 38.5344C87.0249 38.1837 87.0966 37.8061 87.0885 37.426C87.0849 36.7877 86.9525 36.3149 86.6916 36.0076H86.696Z" fill="#9E9C9B"/>
<path d="M92.3666 35.0162C92.6783 35.1641 92.9448 35.3925 93.1385 35.678C93.3164 35.9523 93.4337 36.2614 93.4826 36.5846C93.5438 36.9589 93.5692 37.3382 93.5587 37.7173H89.8203C89.8373 38.2401 89.9597 38.6596 90.1876 38.9758C90.4155 39.292 90.7691 39.4501 91.2484 39.4501C91.4491 39.4586 91.6492 39.4229 91.8344 39.3453C92.0197 39.2677 92.1856 39.1502 92.3203 39.0012C92.4699 38.8269 92.5781 38.621 92.6368 38.399H93.4859C93.4532 38.6214 93.3784 38.8355 93.2654 39.0298C93.1555 39.2403 93.0129 39.432 92.843 39.5979C92.5757 39.8581 92.2406 40.0378 91.8759 40.1162C91.6465 40.1705 91.4113 40.1964 91.1756 40.1934C90.8723 40.1981 90.5714 40.1383 90.2929 40.0179C90.0144 39.8976 89.7646 39.7194 89.5601 39.4953C89.119 39.0298 88.8984 38.378 88.8984 37.5398C88.8984 36.7148 89.1208 36.0445 89.5656 35.5291C89.7798 35.2774 90.048 35.0773 90.3503 34.9436C90.6525 34.81 90.981 34.7462 91.3113 34.757C91.6786 34.7585 92.0404 34.8473 92.3666 35.0162ZM92.6765 37.0346C92.6588 36.7218 92.5761 36.416 92.4339 36.1368C92.1979 35.7221 91.806 35.5148 91.2583 35.5148C91.0717 35.5106 90.8863 35.547 90.715 35.6212C90.5437 35.6954 90.3905 35.8059 90.2659 35.9449C89.994 36.2436 89.843 36.6329 89.8424 37.0368L92.6765 37.0346Z" fill="#9E9C9B"/>
<path d="M94.6579 34.8751H95.5114V35.6041C95.6692 35.396 95.8547 35.2105 96.0628 35.0527C96.3478 34.857 96.6864 34.7546 97.0321 34.7593C97.388 34.7413 97.7391 34.8482 98.0246 35.0615C98.1858 35.2035 98.3164 35.3768 98.4083 35.571C98.5797 35.3139 98.8124 35.1035 99.0854 34.9589C99.3564 34.8233 99.6559 34.7549 99.9588 34.7593C100.649 34.7593 101.119 35.0089 101.369 35.5082C101.504 35.7773 101.57 36.1391 101.57 36.5924V40.0115H100.673V36.4446C100.673 36.1012 100.588 35.8659 100.416 35.7387C100.235 35.6072 100.014 35.5397 99.7901 35.5468C99.4649 35.5415 99.1506 35.6639 98.9145 35.8876C98.6697 36.1148 98.5473 36.4938 98.5473 37.0247V40.0148H97.6651V36.6596C97.6651 36.3111 97.6235 36.0571 97.5405 35.8975C97.4089 35.6571 97.1641 35.5368 96.806 35.5368C96.4709 35.5406 96.1509 35.677 95.9161 35.9163C95.6492 36.1692 95.5158 36.6266 95.5158 37.2883V40.0148H94.6523L94.6579 34.8751Z" fill="#9E9C9B"/>
<path d="M106.018 35.0161C106.331 35.1637 106.6 35.3922 106.796 35.6779C106.973 35.9525 107.09 36.2615 107.139 36.5845C107.2 36.9588 107.225 37.3381 107.215 37.7172H103.477C103.493 38.24 103.615 38.6595 103.844 38.9756C104.072 39.2918 104.426 39.4499 104.906 39.4499C105.106 39.4585 105.306 39.4227 105.491 39.3451C105.676 39.2675 105.842 39.15 105.976 39.001C106.126 38.8266 106.234 38.6208 106.294 38.3988H107.143C107.11 38.6211 107.035 38.8351 106.922 39.0297C106.812 39.24 106.669 39.4316 106.499 39.5977C106.232 39.8578 105.897 40.0374 105.533 40.1161C105.304 40.1703 105.068 40.1962 104.833 40.1933C104.53 40.1981 104.229 40.1386 103.951 40.0189C103.673 39.8991 103.423 39.7217 103.218 39.4984C102.777 39.033 102.557 38.3812 102.557 37.5429C102.557 36.7179 102.777 36.0477 103.218 35.5323C103.433 35.2807 103.701 35.0806 104.003 34.9469C104.305 34.8132 104.634 34.7494 104.964 34.7602C105.331 34.7611 105.692 34.8488 106.018 35.0161ZM106.327 37.0345C106.31 36.7215 106.227 36.4157 106.084 36.1367C105.85 35.722 105.458 35.5146 104.91 35.5146C104.723 35.5107 104.538 35.5471 104.367 35.6214C104.195 35.6956 104.042 35.8059 103.917 35.9448C103.646 36.244 103.496 36.6329 103.494 37.0367L106.327 37.0345Z" fill="#9E9C9B"/>
<path d="M108.308 34.875H109.129V35.6041C109.335 35.3342 109.599 35.1132 109.9 34.9566C110.184 34.8226 110.494 34.755 110.807 34.7592C111.536 34.7592 112.029 35.0136 112.285 35.5225C112.426 35.8019 112.496 36.2004 112.496 36.718V40.0147H111.614V36.7754C111.624 36.5153 111.577 36.2562 111.475 36.0166C111.322 35.6967 111.044 35.5368 110.64 35.5368C110.47 35.5322 110.3 35.5534 110.136 35.5997C109.891 35.6753 109.674 35.8224 109.513 36.0221C109.379 36.172 109.283 36.3521 109.232 36.5471C109.182 36.8013 109.161 37.0602 109.167 37.3191V40.0147H108.304L108.308 34.875Z" fill="#9E9C9B"/>
<path d="M113.947 33.4399H114.819V34.8738H115.639V35.5785H114.819V38.9337C114.81 39.005 114.823 39.0773 114.856 39.1414C114.888 39.2054 114.939 39.2583 115.002 39.2933C115.107 39.3349 115.22 39.353 115.333 39.3462H115.467C115.516 39.3462 115.571 39.3385 115.635 39.3297V40.0168C115.534 40.046 115.431 40.0667 115.326 40.0785C115.21 40.0923 115.094 40.0989 114.978 40.0984C114.575 40.0984 114.301 39.9951 114.157 39.7885C114.003 39.5496 113.925 39.2688 113.937 38.9844V35.5796H113.253V34.8749H113.949L113.947 33.4399Z" fill="#9E9C9B"/>
<path d="M119.973 37.7391C119.978 38.0823 120.072 38.4182 120.246 38.7141C120.55 39.181 121.088 39.4145 121.858 39.4145C122.179 39.4181 122.498 39.3663 122.801 39.2612C123.35 39.0626 123.625 38.7075 123.624 38.1957C123.624 37.8119 123.508 37.5384 123.275 37.3751C123.043 37.2119 122.675 37.0726 122.173 36.9571L121.247 36.7365C120.643 36.5968 120.216 36.4417 119.965 36.2711C119.532 35.977 119.315 35.5358 119.314 34.9476C119.305 34.6572 119.357 34.368 119.467 34.0992C119.577 33.8304 119.743 33.588 119.954 33.388C120.38 32.9807 120.984 32.7773 121.766 32.7781C122.485 32.7781 123.096 32.9564 123.599 33.313C124.101 33.6696 124.352 34.2398 124.352 35.0237H123.455C123.433 34.7139 123.331 34.4151 123.161 34.1557C122.881 33.788 122.408 33.6042 121.739 33.6042C121.199 33.6042 120.811 33.7222 120.575 33.9582C120.463 34.0646 120.373 34.1927 120.313 34.3348C120.252 34.4768 120.22 34.6298 120.221 34.7843C120.212 34.9373 120.246 35.0897 120.321 35.2238C120.395 35.3579 120.505 35.4683 120.64 35.542C120.822 35.6446 121.236 35.7726 121.88 35.9259L122.839 36.152C123.221 36.2256 123.584 36.3756 123.907 36.5931C124.342 36.9233 124.559 37.4012 124.558 38.027C124.558 38.8079 124.281 39.3663 123.728 39.7023C123.143 40.0462 122.475 40.2208 121.798 40.2064C120.943 40.2064 120.274 39.9825 119.791 39.5347C119.307 39.0869 119.07 38.4836 119.079 37.7248L119.973 37.7391Z" fill="#9E9C9B"/>
<path d="M125.788 32.9646H126.67V33.944H125.788V32.9646ZM125.788 34.8992H126.67V40.0146H125.788V34.8992Z" fill="#9E9C9B"/>
<path d="M127.97 34.875H128.791V35.6041C128.997 35.3342 129.261 35.1132 129.563 34.9566C129.846 34.8226 130.156 34.755 130.469 34.7592C131.198 34.7592 131.69 35.0136 131.947 35.5225C132.088 35.8019 132.158 36.2004 132.158 36.718V40.0147H131.276V36.7754C131.286 36.5153 131.239 36.2562 131.137 36.0166C130.984 35.6967 130.705 35.5368 130.303 35.5368C130.132 35.5323 129.962 35.5535 129.799 35.5997C129.554 35.6756 129.337 35.8227 129.176 36.0221C129.041 36.172 128.945 36.3521 128.894 36.5471C128.845 36.8013 128.823 37.0602 128.829 37.3191V40.0147H127.966L127.97 34.875Z" fill="#9E9C9B"/>
<path d="M136.83 35.1483C137.192 35.4291 137.411 35.9137 137.485 36.6019H136.646C136.606 36.3109 136.484 36.0372 136.295 35.8122C136.113 35.6027 135.82 35.4979 135.413 35.4979C134.863 35.4979 134.47 35.7666 134.233 36.3041C134.067 36.7132 133.989 37.1524 134.002 37.5935C133.988 38.0487 134.103 38.4988 134.333 38.8916C134.554 39.2431 134.896 39.4188 135.36 39.4188C135.517 39.4264 135.674 39.4008 135.821 39.3438C135.967 39.2868 136.1 39.1997 136.211 39.088C136.437 38.8361 136.588 38.5257 136.646 38.1924H137.485C137.389 38.8733 137.149 39.3714 136.766 39.6869C136.383 40.0023 135.892 40.16 135.293 40.16C134.986 40.1712 134.681 40.1103 134.401 39.9824C134.122 39.8545 133.877 39.663 133.685 39.4233C133.286 38.9313 133.086 38.3177 133.085 37.5825C133.085 36.6802 133.306 35.978 133.747 35.4758C133.952 35.2331 134.209 35.0394 134.499 34.9091C134.789 34.7787 135.104 34.715 135.422 34.7225C135.998 34.7247 136.467 34.8666 136.83 35.1483Z" fill="#9E9C9B"/>
<path d="M141.524 35.0162C141.835 35.1643 142.102 35.3927 142.296 35.678C142.473 35.9523 142.591 36.2614 142.64 36.5846C142.701 36.9589 142.726 37.3382 142.716 37.7173H138.979C138.994 38.2401 139.116 38.6596 139.345 38.9758C139.573 39.292 139.927 39.4501 140.407 39.4501C140.607 39.4586 140.807 39.4228 140.992 39.3452C141.177 39.2676 141.343 39.1502 141.477 39.0012C141.627 38.8267 141.735 38.6209 141.795 38.399H142.644C142.611 38.6212 142.536 38.8352 142.424 39.0298C142.314 39.2403 142.171 39.432 142.001 39.5979C141.734 39.8581 141.399 40.0378 141.034 40.1162C140.805 40.1705 140.57 40.1964 140.335 40.1934C140.031 40.1981 139.73 40.1383 139.452 40.0179C139.173 39.8976 138.923 39.7194 138.718 39.4953C138.277 39.0298 138.057 38.378 138.057 37.5398C138.057 36.7148 138.277 36.0445 138.718 35.5291C138.933 35.2774 139.201 35.0773 139.503 34.9436C139.805 34.81 140.134 34.7462 140.464 34.757C140.833 34.7581 141.196 34.8469 141.524 35.0162ZM141.832 37.0346C141.815 36.7218 141.732 36.416 141.59 36.1368C141.355 35.7214 140.963 35.5133 140.414 35.5126C140.228 35.5087 140.042 35.5451 139.871 35.6193C139.7 35.6935 139.547 35.8038 139.422 35.9427C139.15 36.2414 138.999 36.6307 138.998 37.0346H141.832Z" fill="#9E9C9B"/>
<path d="M146.585 38.4691C146.798 38.028 147.213 37.6294 147.83 37.2736L148.751 36.7408C149.065 36.5727 149.357 36.3663 149.62 36.1265C149.866 35.8797 150.007 35.5473 150.013 35.199C150.019 34.8506 149.89 34.5134 149.653 34.2581C149.525 34.1381 149.374 34.045 149.209 33.9844C149.044 33.9237 148.869 33.8968 148.694 33.9052C148.101 33.9052 147.691 34.1298 147.465 34.5791C147.328 34.8944 147.259 35.2354 147.263 35.5794H146.381C146.391 34.9816 146.501 34.4938 146.712 34.1158C147.087 33.4541 147.748 33.1214 148.697 33.1177C149.484 33.1177 150.059 33.3305 150.422 33.7563C150.772 34.1467 150.966 34.6524 150.966 35.1769C150.97 35.4391 150.921 35.6994 150.821 35.9419C150.722 36.1845 150.574 36.4041 150.386 36.5875C150.166 36.8147 149.764 37.0897 149.182 37.4125L148.52 37.7776C148.257 37.9159 148.01 38.0816 147.782 38.2717C147.488 38.5098 147.276 38.8338 147.176 39.1982H150.925V40.0144H146.209C146.23 39.4793 146.358 38.9539 146.585 38.4691Z" fill="#9E9C9B"/>
<path d="M155.963 34.2407C156.27 34.8077 156.423 35.5838 156.423 36.5691C156.423 37.5029 156.284 38.2749 156.006 38.8852C155.602 39.7624 154.943 40.2007 154.029 40.1999C153.204 40.1999 152.59 39.8419 152.186 39.1257C151.851 38.5271 151.683 37.7242 151.683 36.7169C151.668 36.0342 151.77 35.3541 151.985 34.7062C152.362 33.6628 153.045 33.1411 154.034 33.1411C154.923 33.1418 155.566 33.5084 155.963 34.2407ZM155.093 38.8235C155.36 38.4279 155.493 37.6889 155.492 36.6066C155.492 35.8257 155.396 35.1834 155.204 34.6797C155.012 34.176 154.639 33.9242 154.084 33.9242C153.574 33.9242 153.202 34.1632 152.967 34.6411C152.732 35.1191 152.614 35.8238 152.614 36.7555C152.614 37.4562 152.687 38.0194 152.834 38.4452C153.066 39.0937 153.46 39.4183 154.018 39.4191C154.233 39.4227 154.446 39.3697 154.635 39.2651C154.824 39.1606 154.982 39.0083 155.093 38.8235Z" fill="#9E9C9B"/>
<path d="M161.427 34.2407C161.735 34.8077 161.888 35.5838 161.888 36.5691C161.888 37.5029 161.748 38.2749 161.47 38.8852C161.067 39.7624 160.408 40.2007 159.494 40.1999C158.669 40.1999 158.055 39.8419 157.651 39.1257C157.316 38.5271 157.148 37.7242 157.147 36.7169C157.132 36.0343 157.234 35.3542 157.449 34.7062C157.828 33.6628 158.511 33.1411 159.498 33.1411C160.388 33.1418 161.031 33.5084 161.427 34.2407ZM160.561 38.8235C160.827 38.4279 160.96 37.6889 160.96 36.6066C160.96 35.8257 160.864 35.1834 160.671 34.6797C160.479 34.176 160.106 33.9242 159.552 33.9242C159.043 33.9242 158.67 34.1632 158.435 34.6411C158.2 35.1191 158.082 35.8238 158.081 36.7555C158.081 37.4562 158.155 38.0194 158.302 38.4452C158.532 39.0937 158.926 39.4183 159.484 39.4191C159.7 39.4231 159.913 39.3702 160.102 39.2657C160.291 39.1611 160.45 39.0086 160.561 38.8235Z" fill="#9E9C9B"/>
<path d="M165.567 40.0147V38.3349H162.555V37.4901L165.702 33.1235H166.431V37.5816H167.443V38.3349H166.431V40.0147H165.567ZM165.553 37.5816V34.4603L163.348 37.5816H165.553Z" fill="#9E9C9B"/>
<path d="M151.446 23.5114C152.154 23.5217 152.829 23.5269 153.471 23.5269C154.567 23.5269 155.425 23.5217 156.046 23.5114C155.979 24.2195 155.911 25.2228 155.841 26.5214C155.771 27.8199 155.727 28.8 155.71 29.4618C155.115 29.5699 154.623 29.6486 154.232 29.6978C153.841 29.7471 153.371 29.7912 152.824 29.8302C152.276 29.8692 151.787 29.8886 151.358 29.8886C150.664 29.8893 149.971 29.8321 149.287 29.7177C148.658 29.6189 148.046 29.4333 147.468 29.1662C146.95 28.9271 146.493 28.5747 146.13 28.135C145.76 27.6769 145.48 27.153 145.304 26.5909C145.11 25.9948 145.011 25.3715 145.013 24.7445C145.007 23.717 145.277 22.7068 145.796 21.8195C146.33 20.9083 147.112 20.1671 148.05 19.682C149.029 19.1585 150.295 18.896 151.847 18.8945C153.111 18.9089 154.371 19.0467 155.608 19.3059C155.608 20.0618 155.642 20.9023 155.71 21.8273C155.337 21.7037 155.036 21.6067 154.805 21.5449C154.54 21.4719 154.271 21.4123 153.999 21.3662C153.691 21.3122 153.399 21.2714 153.117 21.246C152.835 21.2206 152.593 21.2074 152.376 21.2074C151.829 21.2037 151.284 21.2859 150.763 21.4511C150.277 21.6019 149.83 21.8588 149.456 22.2034C149.093 22.5394 148.813 22.9546 148.638 23.4166C148.455 23.8921 148.363 24.3974 148.366 24.9067C148.357 25.3986 148.463 25.886 148.676 26.3295C148.886 26.7497 149.234 27.0852 149.661 27.2802C150.131 27.5036 150.646 27.6168 151.166 27.6111C151.676 27.6045 152.184 27.5367 152.678 27.4092L152.767 25.725C152.43 25.7096 152.23 25.7019 152.169 25.7019L151.345 25.7096L151.399 24.7556C151.399 24.6519 151.411 24.503 151.422 24.3144C151.433 24.1258 151.446 23.8478 151.446 23.5114Z" fill="#FFCB05"/>
<path d="M157.326 29.6867L157.481 27.7014L157.68 23.8223L157.765 21.076C157.765 20.7815 157.773 20.4859 157.773 20.1937C157.773 19.9731 157.77 19.6084 157.765 19.0995C158.447 19.115 158.996 19.1227 159.41 19.1227C159.809 19.1227 160.354 19.1113 161.047 19.0885C161.739 19.0657 162.328 19.054 162.811 19.0532C163.504 19.0532 164.018 19.0973 164.355 19.1856C164.679 19.2689 164.985 19.4093 165.259 19.6003C165.517 19.7801 165.741 20.0042 165.921 20.262C166.102 20.5258 166.236 20.8187 166.317 21.1279C166.581 22.1023 166.447 23.1416 165.945 24.0176C165.617 24.5842 165.121 25.0345 164.525 25.3058C163.879 25.5971 163.178 25.7424 162.469 25.7315C162.144 25.7273 161.82 25.6963 161.5 25.6389C161.459 25.4007 161.381 25.0466 161.267 24.5757C161.154 24.1047 161.061 23.7562 160.988 23.529C161.223 23.576 161.462 23.5993 161.702 23.5984C162.225 23.5984 162.614 23.4731 162.87 23.2223C162.994 23.104 163.092 22.9611 163.158 22.8028C163.224 22.6444 163.257 22.474 163.254 22.3025C163.256 22.1421 163.227 21.9827 163.167 21.8337C163.112 21.6974 163.017 21.5801 162.896 21.4962C162.774 21.4088 162.633 21.3504 162.485 21.3253C162.316 21.2982 162.145 21.2853 161.973 21.2867C161.787 21.2867 161.594 21.2922 161.392 21.3021L160.74 21.3484C160.674 22.347 160.623 23.4565 160.587 24.6771C160.519 26.9007 160.486 28.2348 160.487 28.6797V29.6889L158.943 29.6734C158.724 29.6705 158.185 29.6749 157.326 29.6867Z" fill="#FFCB05"/>
<path d="M167.023 29.5236C166.956 28.4206 166.878 27.5383 166.79 26.8765C167.286 27.107 167.803 27.2876 168.334 27.4159C168.725 27.5093 169.125 27.56 169.527 27.567C169.978 27.567 170.337 27.5019 170.603 27.3695C170.87 27.2372 171.004 27.0387 171.004 26.7839C171.004 26.6982 170.991 26.613 170.965 26.5313C170.929 26.4341 170.88 26.3427 170.817 26.26C170.726 26.1389 170.622 26.028 170.506 25.9291L169.053 24.6596C168.711 24.3692 168.472 24.1596 168.337 24.0309C168.098 23.8087 167.883 23.5617 167.697 23.2942C167.551 23.0808 167.44 22.8465 167.366 22.5993C167.292 22.3564 167.255 22.1041 167.255 21.8504C167.255 21.5342 167.312 21.2204 167.422 20.924C167.67 20.2547 168.165 19.7062 168.806 19.392C169.176 19.1995 169.574 19.067 169.986 18.9993C170.414 18.9289 170.847 18.8938 171.28 18.8945C172.24 18.9036 173.196 19.0052 174.136 19.1979C174.151 19.5537 174.169 19.8809 174.19 20.1795C174.21 20.478 174.259 20.999 174.337 21.7423C173.917 21.5682 173.48 21.4345 173.034 21.3431C172.699 21.2751 172.359 21.2382 172.017 21.2328C171.669 21.2187 171.324 21.2947 171.014 21.4534C170.747 21.6004 170.613 21.7865 170.613 22.0115C170.613 22.1154 170.635 22.2183 170.676 22.3137C170.735 22.4403 170.814 22.5568 170.909 22.6589C171.047 22.8152 171.198 22.9605 171.359 23.0934C171.544 23.2515 171.836 23.4857 172.234 23.796L172.793 24.2372C172.98 24.3909 173.158 24.554 173.328 24.7258C173.507 24.9025 173.673 25.0915 173.825 25.2916C173.948 25.4518 174.056 25.6236 174.147 25.8045C174.22 25.9537 174.276 26.111 174.313 26.2732C174.351 26.4401 174.369 26.6106 174.368 26.7817C174.367 27.2517 174.249 27.714 174.026 28.1276C173.802 28.5411 173.48 28.893 173.088 29.1519C172.679 29.4236 172.222 29.6169 171.743 29.7221C171.235 29.8324 170.718 29.8871 170.199 29.8854C169.361 29.8883 168.303 29.7677 167.023 29.5236Z" fill="#FFCB05"/>
<path d="M34.6826 30.0905L35.1513 23.3692L35.3024 19.5089C35.3127 18.8133 35.3174 18.1019 35.3167 17.3747C35.316 16.6475 35.3064 15.7346 35.288 14.6361C36.5091 14.6559 37.4781 14.6659 38.1949 14.6659C39.0315 14.6659 39.995 14.6559 41.0852 14.6361L41.0224 16.3467C41.324 15.9955 41.6478 15.664 41.9917 15.3541C42.2576 15.1273 42.5467 14.9292 42.854 14.7629C43.1736 14.5883 43.5147 14.4562 43.8686 14.3703C44.2297 14.2835 44.5999 14.2402 44.9713 14.2412C45.38 14.2467 45.7868 14.2974 46.1844 14.3923C46.1939 15.4953 46.2193 16.4034 46.2605 17.1166L46.3707 19.4482C45.8657 19.2944 45.3415 19.2127 44.8136 19.2056C44.2795 19.1935 43.748 19.2837 43.2477 19.4714C42.8057 19.6505 42.4083 19.9242 42.0832 20.2732C41.7251 20.6625 41.4487 21.1197 41.2705 21.6177C41.0683 22.153 40.9272 23.0004 40.847 24.16C40.7669 25.3195 40.7265 26.6467 40.7257 28.1416C40.7257 28.6659 40.7459 29.3166 40.7864 30.0938C39.8071 30.074 38.8227 30.0637 37.8332 30.0629C36.8436 30.0622 35.7935 30.0714 34.6826 30.0905Z" fill="#1C2572"/>
<path d="M48.8194 19.0401C49.0105 18.0423 49.1314 17.3537 49.1822 16.9743C49.2329 16.5949 49.3138 16.0023 49.4248 15.1964C52.3309 14.5596 54.8283 14.2416 56.9169 14.2423C58.0194 14.2311 59.1185 14.3661 60.1855 14.6438C61.175 14.9107 61.9469 15.342 62.5013 15.9376C63.0556 16.5332 63.3331 17.3857 63.3338 18.4953C63.3338 19.0607 63.2581 20.3324 63.1067 22.3104C62.9552 24.2883 62.8394 26.8817 62.7593 30.0905C61.7698 30.0707 60.7857 30.0604 59.8072 30.0596C58.8574 30.0596 57.8476 30.0699 56.778 30.0905C56.9162 28.9809 57.0691 26.6901 57.2367 23.2181C56.8544 23.4004 56.5548 23.5317 56.338 23.6118C56.1211 23.692 55.741 23.8129 55.1977 23.9747C54.6537 24.1365 54.2284 24.2729 53.9218 24.3839C53.6357 24.4843 53.3662 24.6271 53.1223 24.8074C52.9244 24.9468 52.7596 25.1279 52.6393 25.3379C52.5423 25.5248 52.493 25.7329 52.4959 25.9434C52.4943 26.1116 52.53 26.278 52.6006 26.4306C52.6712 26.5832 52.7748 26.7182 52.904 26.8258C53.1767 27.067 53.6105 27.1879 54.2052 27.1887C54.4334 27.1874 54.6611 27.1697 54.8867 27.1357C55.2265 27.0752 55.5607 26.9866 55.8858 26.871C55.5918 27.6475 55.2436 28.7828 54.8415 30.2769C54.0283 30.4118 53.2056 30.4811 52.3813 30.4843C51.1315 30.4843 50.0897 30.31 49.256 29.9615C48.4435 29.6317 47.7662 29.037 47.3339 28.274C46.9059 27.571 46.6733 26.7664 46.6602 25.9434C46.6602 25.468 46.7446 24.9964 46.9094 24.5504C47.0936 24.0662 47.3571 23.6159 47.689 23.2181C48.0418 22.7848 48.4604 22.4096 48.9296 22.1063C49.4038 21.7982 50.0519 21.5078 50.8738 21.235C51.8978 20.912 52.9413 20.6541 53.9979 20.4629C54.5221 20.3629 55.0036 20.2545 55.4425 20.1376C55.7623 20.0612 56.0757 19.9602 56.3799 19.8354C56.5481 19.7621 56.702 19.6594 56.8342 19.532C56.9411 19.4294 57.0259 19.3059 57.0834 19.1692C57.1345 19.0416 57.1604 18.9052 57.1595 18.7677C57.1648 18.5908 57.1227 18.4158 57.0376 18.2606C56.9524 18.1055 56.8274 17.9759 56.6754 17.8854C56.3527 17.678 55.8788 17.5743 55.2539 17.5743C53.5145 17.5729 51.3697 18.0615 48.8194 19.0401Z" fill="#1C2572"/>
<path d="M78.4372 25.2573C78.3865 25.661 78.2656 26.4025 78.0744 27.4819L77.6808 29.9084C76.1601 30.2844 74.6001 30.4777 73.0337 30.4841C72.06 30.4997 71.0884 30.3884 70.1434 30.1532C69.1716 29.8941 68.2712 29.4178 67.51 28.7602C66.7355 28.1063 66.1373 27.2686 65.7699 26.3238C65.3215 25.1448 65.1007 23.8914 65.1192 22.6301C65.1162 21.3962 65.3312 20.1715 65.7544 19.0124C66.1356 17.9177 66.7793 16.9331 67.6291 16.1448C68.4084 15.4195 69.3558 14.8995 70.386 14.6315C71.4805 14.3642 72.6041 14.2345 73.7307 14.2455C74.4533 14.2446 75.1755 14.2814 75.8943 14.3558C76.8017 14.4634 77.7014 14.6277 78.5883 14.8477L78.6192 15.1963C78.649 15.5591 78.6721 15.9297 78.6865 16.308C78.7008 16.6863 78.735 17.2841 78.7857 18.1025L78.8761 19.4492C77.433 18.9455 76.1567 18.6933 75.0474 18.6926C74.3221 18.6764 73.6036 18.8345 72.9521 19.1536C72.3742 19.4399 71.9062 19.908 71.62 20.486C71.3218 21.117 71.1742 21.8087 71.1888 22.5065C71.1888 23.2845 71.3175 23.9356 71.5748 24.4599C71.8342 24.9864 72.2712 25.4044 72.8088 25.64C73.3927 25.905 74.0279 26.0379 74.6691 26.0293C75.0756 26.0222 75.481 25.9853 75.8822 25.919C76.3519 25.8455 76.7607 25.7672 77.1084 25.6841C77.5593 25.5679 78.003 25.4253 78.4372 25.2573Z" fill="#1C2572"/>
<path d="M80.5264 30.0904C80.666 28.7992 80.766 27.7495 80.8263 26.9415C80.9065 25.8385 80.9866 24.4613 81.0667 22.8098L81.2321 19.222C81.3057 17.5977 81.3556 16.0437 81.3821 14.5598C81.4233 12.7841 81.4435 11.0738 81.4428 9.42896C82.8565 9.44881 83.917 9.45873 84.6242 9.45873C85.4425 9.45873 86.4122 9.44881 87.5333 9.42896C87.2995 12.076 87.0863 15.3606 86.8937 19.2826C86.7011 23.2047 86.6044 26.8076 86.6037 30.0915C85.4347 30.0716 84.447 30.0613 83.6406 30.0606C82.7128 30.0598 81.6747 30.0698 80.5264 30.0904ZM87.2003 21.397L89.8028 17.647L91.7558 14.6381C93.1474 14.658 94.2017 14.6679 94.9185 14.6679C95.908 14.6679 97.0784 14.658 98.4296 14.6381L95.418 18.5536C94.7108 19.4514 93.9892 20.419 93.2533 21.4565C93.9598 22.7602 95.6599 25.6389 98.3536 30.0926C97.1773 30.0727 96.1131 30.0624 95.1611 30.0617C94.1914 30.0617 93.0813 30.072 91.8307 30.0926L90.8923 28.1988C90.5607 27.5422 90.2733 26.9907 90.0299 26.5444C89.9395 26.362 89.2484 25.1245 87.9567 22.8319L87.2003 21.397Z" fill="#1C2572"/>
<path d="M114.291 25.5186C114.159 26.1245 113.907 27.5877 113.534 29.9083C112.363 30.1406 111.38 30.2947 110.583 30.3704C109.787 30.4461 108.979 30.4829 108.157 30.4807C107.048 30.4873 105.939 30.404 104.843 30.2314C103.926 30.0976 103.042 29.7986 102.232 29.3491C101.524 28.9458 100.899 28.4095 100.394 27.7697C99.879 27.099 99.4961 26.3366 99.2659 25.523C99.0084 24.6544 98.8784 23.7531 98.8799 22.8472C98.8825 21.5456 99.145 20.2575 99.6518 19.0586C100.166 17.8233 100.828 16.8579 101.637 16.1623C102.451 15.466 103.41 14.96 104.444 14.6811C105.504 14.3878 106.598 14.2394 107.698 14.2399C108.807 14.2347 109.913 14.3696 110.989 14.6414C111.978 14.8787 112.891 15.3599 113.646 16.041C114.337 16.6567 114.87 17.4305 115.197 18.2965C115.51 19.1655 115.666 20.083 115.658 21.0064C115.651 21.6515 115.585 22.2945 115.462 22.9278L104.852 22.9432C104.843 23.1042 104.837 23.2498 104.837 23.3844C104.837 24.4704 105.226 25.2697 106.003 25.7822C106.78 26.2947 107.728 26.552 108.848 26.5542C109.613 26.5443 110.375 26.4657 111.126 26.3193C112.194 26.1085 113.251 25.8412 114.291 25.5186ZM104.983 20.6248H109.978C109.988 20.4539 109.993 20.3072 109.993 20.1836C110.006 19.7191 109.91 19.258 109.713 18.8369C109.544 18.4828 109.262 18.1952 108.911 18.0197C108.545 17.8464 108.144 17.7607 107.739 17.7693C107.439 17.7679 107.141 17.8163 106.857 17.9127C106.579 18.0062 106.32 18.1497 106.093 18.3362C105.87 18.5186 105.678 18.7361 105.525 18.9803C105.385 19.1997 105.274 19.4362 105.194 19.684C105.105 19.9931 105.034 20.3073 104.983 20.6248Z" fill="#1C2572"/>
<path d="M117.076 30.0907L117.499 22.7947L117.74 17.0881L117.771 14.6363C118.881 14.6561 119.86 14.666 120.708 14.666C121.663 14.666 122.597 14.6561 123.509 14.6363L123.398 16.6546C123.644 16.3287 123.91 16.0179 124.193 15.7238C124.434 15.4882 124.701 15.2799 124.987 15.1028C125.292 14.9105 125.617 14.7533 125.957 14.634C126.321 14.51 126.696 14.4163 127.076 14.3539C127.506 14.2804 127.941 14.2435 128.377 14.2436C128.854 14.2401 129.331 14.2833 129.8 14.3726C130.183 14.4432 130.559 14.5522 130.92 14.698C131.209 14.8165 131.484 14.9687 131.737 15.1513C131.965 15.3194 132.171 15.5154 132.349 15.7348C132.579 16.0328 132.784 16.3489 132.962 16.68C133.336 16.1074 133.813 15.6095 134.37 15.212C134.885 14.8703 135.457 14.6221 136.058 14.4785C137.519 14.1224 139.049 14.1719 140.484 14.6219C141.238 14.8586 141.905 15.3144 142.399 15.9311C142.898 16.5517 143.148 17.3565 143.148 18.3454C143.148 18.8094 143.114 19.5109 143.048 20.4499C142.982 21.3888 142.89 23.001 142.773 25.2862C142.656 27.5715 142.592 29.1734 142.582 30.0918C141.653 30.0719 140.756 30.0616 139.89 30.0609C138.833 30.0609 137.724 30.0712 136.564 30.0918C136.666 28.8101 136.771 27.2032 136.877 25.2708C136.984 23.3385 137.037 21.9987 137.037 21.2517C137.037 20.598 136.961 20.1098 136.81 19.787C136.697 19.506 136.49 19.2724 136.226 19.1252C135.98 19.0104 135.713 18.9502 135.442 18.9487C135.171 18.9472 134.903 19.0044 134.656 19.1164C134.401 19.2498 134.182 19.4436 134.019 19.6811C133.752 20.0672 133.552 20.4951 133.427 20.9473C133.305 21.3443 133.21 21.9499 133.139 22.7638C133.065 23.591 133.01 24.6807 132.972 26.0329L132.851 30.0896C131.773 30.0697 130.8 30.0594 129.933 30.0587C129.045 30.0587 128.002 30.069 126.802 30.0896C126.895 29.1918 127.002 27.6844 127.125 25.5675C127.247 23.4506 127.308 22.0329 127.309 21.3146C127.309 20.7087 127.248 20.2546 127.128 19.9524C127.022 19.6715 126.848 19.4216 126.621 19.2256C126.372 19.0336 126.064 18.9369 125.75 18.9532C125.377 18.946 125.014 19.0692 124.722 19.3017C124.398 19.573 124.142 19.9149 123.972 20.301C123.765 20.7348 123.618 21.3326 123.531 22.0943C123.443 22.8561 123.365 24.019 123.296 25.5829C123.222 27.1484 123.177 28.6521 123.16 30.094C121.938 30.0741 120.948 30.0638 120.19 30.0631C119.357 30.0609 118.319 30.0701 117.076 30.0907Z" fill="#1C2572"/>
<path d="M33.4734 14.6007C32.1898 7.21101 25.9426 1.56505 18.4406 1.29924C12.167 1.07645 7.24761 3.69483 3.9636 9.0441C1.33022 13.3312 0.841696 17.8908 2.94245 22.6103C4.19121 25.3784 5.67353 28.0351 7.37332 30.5514C9.99127 34.479 12.8926 38.1904 15.9616 41.7728C16.513 42.4224 17.0853 43.061 17.6587 43.7184C17.7602 43.6081 17.8374 43.5309 17.9102 43.4492C21.1975 39.7312 24.2995 35.8665 27.1226 31.7834C29.0899 28.9367 30.9051 26.0007 32.2989 22.8198C33.4524 20.1838 33.9751 17.4882 33.4734 14.6007ZM27.2196 10.897C27.1799 11.6838 27.1527 12.3345 27.138 12.8492C27.1233 13.3639 27.1156 13.7522 27.1149 14.0139C24.9829 13.9044 23.2214 13.8496 21.8305 13.8496H20.7829C20.6314 15.6143 20.516 17.2448 20.4366 18.7412C20.3256 20.8853 20.2399 22.9669 20.1796 24.986C20.1194 27.0051 20.0892 28.6397 20.0892 29.8897C18.4513 29.8698 17.393 29.8599 16.9144 29.8599C16.4858 29.8599 15.3378 29.8698 13.4705 29.8897C13.9667 25.0367 14.2645 19.6915 14.3637 13.854L7.98646 14.0184L8.06144 12.3529C8.10114 11.4639 8.13129 10.4901 8.15187 9.43123C10.9867 9.45108 14.292 9.46101 18.0679 9.46101L21.7676 9.44667H25.3637L27.3112 9.43123L27.2196 10.897Z" fill="#1C2572"/>
<path d="M149.307 14.9899C148.6 14.9901 147.908 14.7805 147.32 14.3878C146.732 13.995 146.274 13.4366 146.003 12.7833C145.732 12.1299 145.661 11.4109 145.799 10.7172C145.937 10.0235 146.277 9.38627 146.777 8.88608C147.277 8.38589 147.914 8.04523 148.608 7.90717C149.301 7.76911 150.02 7.83986 150.673 8.11046C151.327 8.38107 151.885 8.83938 152.278 9.42743C152.671 10.0155 152.881 10.7069 152.881 11.4141C152.88 12.362 152.503 13.2708 151.833 13.9412C151.163 14.6115 150.254 14.9887 149.307 14.9899ZM149.307 8.38985C148.708 8.38985 148.124 8.56731 147.626 8.89979C147.129 9.23227 146.741 9.70484 146.512 10.2577C146.283 10.8106 146.223 11.419 146.34 12.0058C146.457 12.5927 146.745 13.1318 147.168 13.5549C147.591 13.9779 148.13 14.266 148.717 14.3826C149.304 14.4992 149.912 14.4391 150.465 14.21C151.018 13.9808 151.49 13.5929 151.822 13.0952C152.155 12.5976 152.332 12.0125 152.332 11.4141C152.33 10.6122 152.011 9.84348 151.444 9.27654C150.877 8.7096 150.108 8.39073 149.307 8.38985Z" fill="#1C2572"/>
<path d="M149.521 11.6074L150.713 13.2486H150.003L148.9 11.6725H148.79V13.2486H148.209V9.39819H148.889C149.397 9.39819 149.765 9.49378 149.992 9.68496C150.114 9.78787 150.212 9.91719 150.277 10.0632C150.341 10.2091 150.372 10.3679 150.367 10.5276C150.373 10.7824 150.29 11.0312 150.132 11.2313C149.979 11.4244 149.763 11.5575 149.521 11.6074ZM148.799 11.1662H148.982C149.532 11.1662 149.807 10.9559 149.807 10.5353C149.807 10.1419 149.539 9.94488 149.004 9.94415H148.798L148.799 11.1662Z" fill="#1C2572"/>
</svg>
